<?xml version="1.0" encoding="UTF-8"?>
<svg id="Layer_1" data-name="Layer 1" xmlns="http://www.w3.org/2000/svg" viewBox="0 0 612.35 652.92">
  <defs>
    <style>
      .cls-1 {
        fill: #00bb62;
      }

      .cls-2 {
        fill: #207472;
      }

      .cls-3 {
        fill: #c3c1e4;
      }

      .cls-4 {
        fill: #87be62;
      }

      .cls-5 {
        fill: #01a257;
      }

      .cls-6 {
        fill: #01a959;
      }

      .cls-7 {
        fill: #69e7b0;
      }

      .cls-8 {
        fill: none;
        stroke: #515372;
        stroke-linecap: round;
        stroke-miterlimit: 10;
        stroke-width: 8px;
      }

      .cls-9 {
        fill: #fdfdfc;
      }

      .cls-10 {
        fill: #b2b1d8;
      }

      .cls-11 {
        fill: #515372;
      }

      .cls-12 {
        fill: #2ade84;
      }

      .cls-13 {
        fill: #545476;
      }

      .cls-14 {
        fill: #6a6d91;
      }

      .cls-15 {
        fill: #fff;
      }

      .cls-16 {
        fill: #31cf85;
      }

      .cls-17 {
        fill: #2f9073;
      }

      .cls-18 {
        fill: #f85db4;
      }

      .cls-19 {
        fill: #efecf7;
      }

      .cls-20 {
        fill: #52a58b;
      }

      .cls-21 {
        fill: #60b5c0;
      }

      .cls-22 {
        fill: #fdfdfd;
      }
    </style>
  </defs>
  <g>
    <g>
      <path class="cls-12" d="M334.2,119.61c-1.62,4.99-1.2,11.04-1.44,16.32,25.92-.1,52.06-.29,77.36,5.89,58.1,14.21,99.46,57.22,115.02,114.38,1.06,3.88,1.55,9.45,2.89,12.95.84,2.19,3.84,5.06,5.21,7.27,5.94,9.55,9.95,20.09,13.05,30.87-1.12,23.21-5.97,57.85-12.14,80.26-1.09,3.96-3.2,7.38-4.42,11.42-1.72,5.73-3.04,13.94-3.15,19.91-.08,3.97,3.44,7.73,7.23,5.53,1.59-.21.8.57.73,1.44-1.53,19.08-3.83,37.23-6.49,56.16-.63,4.48-1.27,8.96-1.92,13.44-.9,6.26-2.47,12.63-3.36,18.72-2.72-2.74-5.05-2.28-8.16-.48,0-.09-.54-.75-.51-1.62.75-29.59,2.95-57.59-18.91-80.46-33.58-35.14-93.75-26.21-116.37,16.33-1.23-7.98-2-16.46-7.9-22.58-1.24-1.29-4.16-2.77-5.07-4.05-1.59-2.23-3.33-8.06-4.87-10.97-3.21-6.08-7.6-11.79-11.91-17.13,26.25.08,54.9,1.39,80.87.02,13.85-.73,24.73-5.09,34.76-14.42,35.93-33.4,13.64-90.41-34.07-93.12.67-1.12,2.9-6.42,3.14-7.66,1.29-6.56-5.22-9.32-8.25-4.41-1.83,2.97-2.49,6.71-4.97,9.91-21.08,27.16-73.15,24.21-103.64,24.24-2.07,0-4.16-.01-6.24,0-.96,0-1.92-.03-2.88,0-.63.02-1.59-.24-1.92.48-.16,0-.32.01-.48,0-1.38-.1-2.67-.48-4.06-.5H125.2s-2.13,1.46-2.13,1.46c-.02-.03-.66.07-.79-.16-1.49-2.73-1.91-5.1-2.11-8.22-.88-13.26-.67-31.8,0-45.16,1.35-26.88,16.2-47.78,39.37-60.22l14.62-1.46,98.76-.08c4.58-1.62,4.83-7.59.07-8.99-24.93.85-50.72-1.23-75.54-.03.58-2.26,2.03-4.62,3.18-6.66,4.21-7.43,10.19-16.4,16.01-22.62,13.57-14.52,33.77-27.45,53.26-32.64,19.46-5.18,43.98-3.36,64.3-3.36ZM154.64,230.59c-12.88,1.03-10.81,24.81,1.29,24.4s11.49-25.42-1.29-24.4ZM230.92,230.58c-11.88,1.61-11.19,24.68.81,24.4,12.75-.3,12.44-26.2-.81-24.4ZM471.81,256.07c-5.48.4-12.48,1.74-16.85,5.22-6.74,5.37-2.2,10.02,4,12.63,10.12,4.26,26.04,4.29,36-.45,4.73-2.25,8.68-6.21,4.29-11.04-5.5-6.04-19.72-6.92-27.43-6.35Z"/>
      <path class="cls-11" d="M256.66,120.37c.67-1.85,10.93-5.75,12.75-6.28,12.84-3.77,26.98-2.95,40.21-3.22l24.84-45.95c6.42-8.6,17.36-11.39,26.93-5.88,7.69,4.42,24.31,32.05,30.66,40.85,1.25,1.73,3.14,3.26,3.56,5.32l2.62-1.45c12.69-9,25.46-23.62,38.48-31.58,14.51-8.87,27.97.48,31.2,15.66,3.18,14.9,4.92,30.15,8.28,45.02l50.17-11.31c14-1.38,24.39,9.15,22.73,23.22-4.37,16.75-10.68,32.96-14.83,49.73l49.54,8.77c14.78,4.36,20.76,20.34,11.17,33-8.01,10.57-19.49,20.95-28.32,31.19-.55.64-3.66,4.25-3.59,4.55l40.08,25.68c11.84,7.13,12.31,24.76,1.06,32.76l-55.07,26.14-5.77,30.53c7.2,4.39,12.93,11.67,17.21,18.91,1.55,2.63,3.54,8.05,4.88,9.87.87,1.19,4.64,3.27,6.03,4.65,13.72,13.58,14.05,38.68-1,51.37-8.54,7.21-17.44,6.81-28.06,6.97-4.57,6.09-9.79,12.57-16.31,16.56.65-4.48,1.29-8.96,1.92-13.44,7.95-6.86,12.54-16.54,15.59-26.42.73-.79,5.84.51,7.45.02.21,1.73.28,1.45,0,3.36-.08.57-.38,1-.48,1.44-.74,3.13-1.92,5.96-2.4,9.12h7.44c4.07,0,11.43-6.08,13.6-9.44,8.05-12.44,3.17-32.87-11.44-37.6-.32,5-.83,9.92-1.44,14.88-2.31.8-4.79.4-7.2.48-.48-3.58,0-4.9,0-7.92v-9.12c0-.65.97-2.45.48-3.6,2.22-.11,4.49.08,6.72,0,.43-3.76-13.12-23.03-15.11-22.56-3.06,5.84-4.84,12.4-5.52,18.96-.14,1.35.11,2.74,0,4.08-.17,1.86-.12,5.68-1.92,6.72-3.79,2.2-7.31-1.56-7.23-5.53.12-5.97,1.44-14.18,3.15-19.91,1.21-4.05,3.33-7.47,4.42-11.42,6.17-22.41,11.02-57.05,12.14-80.26,4.31-89.27-54.47-168.31-142.9-184.65-22.51-4.16-46.29-3.04-69.18-3.03-20.31,0-44.83-1.82-64.3,3.36-3.55.45-14.51.96-13.23-2.6ZM388.41,111.44c.36-.33-4.01-6.76-4.6-7.64-7.83-11.61-16.37-22.74-24.2-34.35-4.63-5.38-13.28-4.87-17.46.75-6.33,12.43-14.23,24.31-20.22,36.9-.54,1.14-1.1,2.32-1.19,3.61l67.66.72ZM467.11,136.89c-2.39-17.21-5.85-34.37-9.24-51.48-2.92-6.67-10.58-9.43-16.64-4.89l-38.92,31.67.3,1.22c11.33,2.41,22.52,5.22,33.39,9.23,3.74,1.38,7.63,2.94,11.28,4.56,5.27,2.34,13.3,7.91,17.95,9.41.64.21,1.19.41,1.88.28ZM524.68,192.57l15.25-48.35c1.69-7.66-4.84-14.6-12.55-13.51l-51.16,11.94c-.17.85.44,1.18.95,1.68,3.52,3.44,9.05,6.7,12.97,10.07,8.84,7.59,17.22,16.32,24.45,25.46,2.75,3.48,5.77,9.04,8.66,11.98.46.46.62.91,1.42.73ZM566.62,253.71c7.29-7.98,14.67-15.9,21.81-24.02,5.23-7.81-.06-16.14-8.54-17.69l-48.95-8.86c-.61.59,4.35,8.85,4.98,10.14,8.33,17.04,14.26,35.32,16.84,54.2l1.22.23c4.41-4.48,8.42-9.35,12.65-13.99ZM600.83,321.06c3.23-3.79,2.99-11.07-1.03-14.27-12.02-7.79-23.9-15.91-36.1-23.41-1.11-.68-8.71-5.47-9.26-4.89.68,14.12.78,28.34-.49,42.47-.71,7.93-2.4,15.81-2.87,23.76,1.56.06,3.02-.53,4.43-1.09,9.01-3.56,20.07-9.37,29.01-13.7,3.73-1.81,14.03-6.2,16.31-8.88Z"/>
      <path class="cls-16" d="M305.41,308.25c-2.19,3.56-1.74,5.32.48,8.64-58.05.18-116.13-.13-174.18,0-.32-.81-1.51-.31-1.92-.48-3.84-1.56-4.95-4.29-6.72-7.2l2.13-1.47h176.15c1.39.04,2.68.42,4.06.51Z"/>
      <path class="cls-7" d="M197.45,184.89c24.83-1.2,50.61.87,75.54.03,4.76,1.41,4.5,7.37-.07,8.99l-98.76.08-14.62,1.46c12.36-6.64,23.74-9.87,37.91-10.56Z"/>
      <path class="cls-11" d="M265.58,116.73c-1.08,3.1.77,6.69,4.32,6.24-19.49,5.19-39.69,18.12-53.26,32.64-4.56-6.4-.37-9.58,4.07-13.93,9.21-9.02,23.76-18.19,35.86-22.69,2.88-1.07,5.93-2.51,9.02-2.26Z"/>
      <path class="cls-19" d="M131.71,316.89c-2.2.24-.89.13-1.92,1.92v-2.4c.41.17,1.6-.33,1.92.48Z"/>
      <path class="cls-7" d="M546.28,307.29c-3.09-10.78-7.11-21.32-13.05-30.87-1.37-2.21-4.38-5.08-5.21-7.27-1.34-3.5-1.83-9.07-2.89-12.95-15.56-57.16-56.92-100.17-115.02-114.38-25.3-6.19-51.44-5.99-77.36-5.89.25-5.29-.17-11.34,1.44-16.32,22.9,0,46.68-1.13,69.18,3.03,88.43,16.34,147.21,95.38,142.9,184.65Z"/>
      <path class="cls-18" d="M471.81,256.07c7.72-.57,21.94.31,27.43,6.35,4.39,4.83.44,8.79-4.29,11.04-9.96,4.75-25.87,4.71-36,.45-6.21-2.61-10.74-7.25-4-12.63,4.37-3.48,11.38-4.82,16.85-5.22Z"/>
      <path class="cls-11" d="M154.64,230.59c12.77-1.02,13.59,23.99,1.29,24.4s-14.16-23.37-1.29-24.4Z"/>
      <path class="cls-11" d="M230.92,230.58c13.25-1.8,13.56,24.1.81,24.4-12,.28-12.69-22.79-.81-24.4Z"/>
      <path class="cls-14" d="M549.64,417.21c.49,1.15-.48,2.95-.48,3.6v9.12c0,3.02-.48,4.34,0,7.92.02.16-.02.32,0,.48-3.16.34-10.25.02-12.95,1.21-1.54.67-2.95,4.55-2.9,6.21.04,1.27,1.17,7.72,2.04,8.11,2.51,1.12,11.93-1.88,15.25-1.61-.4,1.01.33,1.76.48,2.4.06.27-.04.65,0,.96-1.6.49-6.71-.81-7.45-.02-3.04,9.88-7.64,19.56-15.59,26.42,2.66-18.92,4.96-37.08,6.49-56.16.07-.87.87-1.66-.73-1.44,1.8-1.04,1.75-4.86,1.92-6.72,4.67.3,9.28-.25,13.92-.48Z"/>
      <path class="cls-13" d="M430.64,285.69c-3.79,6.36-13.36,13.75-19.83,17.36-31.71,17.74-69.76,13.73-104.93,13.84-2.22-3.32-2.67-5.08-.48-8.64.16.01.32,0,.48,0,.63,0,1.59.23,1.92-.48.96-.03,1.92,0,2.88,0,2.01,0,4.1,0,6.24,0,30.49-.03,82.56,2.92,103.64-24.24,2.48-3.2,3.14-6.94,4.97-9.91,3.03-4.91,9.53-2.15,8.25,4.41-.24,1.24-2.47,6.53-3.14,7.66Z"/>
      <path class="cls-16" d="M307.81,307.77c-.33.71-1.29.47-1.92.48.33-.72,1.29-.46,1.92-.48Z"/>
      <path class="cls-5" d="M524.68,192.57c-.8.18-.97-.26-1.42-.73-2.89-2.94-5.91-8.5-8.66-11.98-7.23-9.14-15.61-17.87-24.45-25.46-3.92-3.36-9.45-6.63-12.97-10.07-.51-.5-1.12-.83-.95-1.68l51.16-11.94c7.71-1.09,14.23,5.85,12.55,13.51l-15.25,48.35Z"/>
      <path class="cls-5" d="M600.83,321.06c-2.29,2.68-12.59,7.07-16.31,8.88-8.93,4.33-20,10.14-29.01,13.7-1.41.56-2.86,1.15-4.43,1.09.48-7.96,2.17-15.84,2.87-23.76,1.26-14.13,1.16-28.36.49-42.47.56-.58,8.15,4.21,9.26,4.89,12.2,7.49,24.09,15.62,36.1,23.41,4.02,3.21,4.26,10.49,1.03,14.27Z"/>
      <path class="cls-5" d="M566.62,253.71c-4.24,4.64-8.24,9.5-12.65,13.99l-1.22-.23c-2.58-18.88-8.5-37.15-16.84-54.2-.63-1.29-5.58-9.55-4.98-10.14l48.95,8.86c8.48,1.55,13.77,9.88,8.54,17.69-7.14,8.12-14.52,16.04-21.81,24.02Z"/>
      <path class="cls-5" d="M467.11,136.89c-.69.13-1.24-.07-1.88-.28-4.65-1.5-12.68-7.06-17.95-9.41-3.65-1.62-7.53-3.18-11.28-4.56-10.87-4.01-22.06-6.83-33.39-9.23l-.3-1.22,38.92-31.67c6.05-4.54,13.71-1.78,16.64,4.89,3.39,17.1,6.85,34.26,9.24,51.48Z"/>
      <path class="cls-5" d="M388.41,111.44l-67.66-.72c.09-1.29.64-2.47,1.19-3.61,5.99-12.59,13.89-24.47,20.22-36.9,4.18-5.62,12.83-6.13,17.46-.75,7.83,11.61,16.37,22.74,24.2,34.35.59.87,4.96,7.31,4.6,7.64Z"/>
      <path class="cls-1" d="M556.36,437.37c.61-4.96,1.13-9.88,1.44-14.88,14.61,4.73,19.49,25.16,11.44,37.6-2.17,3.35-9.53,9.44-13.6,9.44h-7.44c.48-3.16,1.66-5.99,2.4-9.12.81-.26,1.22-.88.48-1.44.28-1.91.21-1.63,0-3.36-.04-.31.06-.69,0-.96.93-.65.76-4.54.99-4.77.18-.17,1.33.11,1.89-.25,1.44-.92,2.13-10.18,2.39-12.26Z"/>
      <path class="cls-16" d="M550.6,460.41c.1-.44.4-.87.48-1.44.74.56.33,1.18-.48,1.44Z"/>
      <g>
        <path class="cls-22" d="M430.64,285.69c23.85,1.35,41.35,16.28,48.4,35.05,6.4,17.04,1.43,33.05.73,35.15-3.98,12.07-11.35,19.59-15.06,22.92-99.24,0-198.49,0-297.73,0-16.16-1.02-26.56-10.22-33.28-24.3-1.03-2.16-1.54-6.08-3.91-6.89-.04-3.47-.04-10.01-.03-16.01,0-.96.01-5.18.01-6.09,0-1.14.01-5.58.02-6.7.14-.22.31-.56.42-1,.18-.76-.17-.75,1.5-.92,58.05-.13,116.13.18,174.18,0,35.17-.11,73.21,3.9,104.93-13.84,6.47-3.62,16.04-11,19.83-17.36Z"/>
        <path class="cls-19" d="M464.71,378.81c-10.04,9.33-20.91,13.69-34.76,14.42-25.97,1.37-54.62.05-80.87-.02-3.49-.01-7.38-.47-11.04-.48-10.71-.03-21.44.03-32.15,0-34.52-.08-69.21-.34-103.64.48-12.96-.63-26.71.85-39.58,0-10.43-.69-20.19-5.51-26.35-13.96-7.46-10.22-6.37-19.68-6.52-31.64,2.37.81,2.88,4.73,3.91,6.89,6.73,14.08,17.13,23.28,33.28,24.3h297.73Z"/>
      </g>
    </g>
    <path class="cls-4" d="M258.86,529.05c-9.27-.01-18.56.01-27.83,0h27.83Z"/>
    <path class="cls-4" d="M228.15,529.05c-3.75,0-7.55.13-11.3,0-.92-.03-1.93.49-1.66-.96,3.67.59,6.63.43,10.32.47.81.01,2.13-.31,2.63.49Z"/>
    <path class="cls-1" d="M535.73,417.69c.12-1.34-.13-2.73,0-4.08.68-6.56,2.46-13.13,5.52-18.96,1.99-.47,15.53,18.8,15.11,22.56-2.23.09-4.49-.11-6.72,0-4.63.23-9.24.78-13.92.48Z"/>
    <path class="cls-16" d="M556.36,437.37c-.26,2.08-.95,11.34-2.39,12.26-.56.36-1.72.08-1.89.25-.23.22-.06,4.12-.99,4.77-.15-.64-.88-1.39-.48-2.4.49-.72.96-1.17.98-2.13.07-2.77-1.93-8.53-2.42-11.79-.02-.16.02-.32,0-.48,2.41-.08,4.88.32,7.2-.48Z"/>
    <path class="cls-9" d="M549.16,438.33c.49,3.25,2.49,9.02,2.42,11.79-.02.97-.49,1.42-.98,2.13-3.31-.28-12.74,2.72-15.25,1.61-.86-.39-1.99-6.84-2.04-8.11-.06-1.65,1.36-5.53,2.9-6.21,2.7-1.18,9.79-.86,12.95-1.21Z"/>
    <g>
      <path class="cls-13" d="M289.57,569.85h-5.28c-1.11-1.83-3.02-3.57-4.32-5.28.63.37,1.35,1.2,1.44-.23.23-3.77-.27-7.8-.02-11.55.54-7.91,3.04-16.19,5.3-23.74-8.79-.01-17.6,0-26.39,0,.5-.79,1.82-.48,2.63-.49,10.72-.11,22.02.95,32.4-1.43-5.18,11.71-9.34,30.32-5.76,42.72Z"/>
      <path class="cls-12" d="M369.7,487.77c.08,17.14-1.41,34.08,4.8,50.4-26.94-7.67-57.07,4.05-67.66,30.72-.24.6-.31.97-.48,1.44-.09.25.09.7,0,.96-2.53,7.62-3.16,12.47-3.36,20.64-5.38-5.22-10.52-13.05-12.96-20.16-.16-.48-.3-1.28-.48-1.92-3.58-12.4.58-31.01,5.76-42.72.15-.33,1.64-2.81,1.79-2.88,1.08-.57,5.38-1.33,7.09-1.9,17-5.72,34.08-12.85,48.84-23.14,3.42-2.38,10.92-9.68,13.6-10.88,1.32-.59,2.57-.35,3.05-.56Z"/>
      <g>
        <path class="cls-22" d="M514.61,513.69c-.41,11.11-4.18,25.17-8.16,35.52-4.1,2.05-7.55,5.41-11.56,7.88-26.1,16.06-59.58,16.06-87.77,5.56-6.82-11.31-19.99-20.88-32.63-24.48-6.21-16.32-4.71-33.26-4.8-50.4,15.14-6.46,11.09-27.06,9.12-39.84,22.62-42.54,82.78-51.47,116.37-16.33,21.86,22.87,19.67,50.87,18.91,80.46-.02.88.52,1.54.51,1.62ZM399.82,440.86c-4.63.35-5.13,6.5-.14,7.08h94.56c5.05-1.29,3.67-7.44-1.45-7.23l-92.98.15ZM400.79,488.38c-6.25.63-5.42,6.99-.63,7.56,13.58,1.61,30.26-1.25,44.18.02,15.54-1.37,32.47,1.31,47.98,0,2.28-.19,4.7-.49,5.05-3.11.28-2.08.19-3.82-2.16-4.13-6.93-.9-17.58.09-24.99.04-21.4-.13-43.15.11-64.78,0-1.64,0-2.62-.57-4.64-.37ZM399.81,538.28c-4.34.78-4.71,6.59-.62,7.11l95.04-.02c4.69-.48,4.04-6.97-.48-7.22l-93.94.13Z"/>
        <path class="cls-19" d="M506.46,549.21c-14.81,38.56-50.02,62.72-90.48,68.13-.96.13-.59.01-.68-.68-1.01-7.84.46-18.19.02-26.43-.5-9.41-3.3-19.5-8.18-27.58,28.19,10.5,61.67,10.5,87.77-5.56,4.01-2.47,7.45-5.83,11.56-7.88Z"/>
        <path class="cls-19" d="M400.79,488.38c2.02-.2,3,.36,4.64.37,21.63.11,43.38-.13,64.78,0,7.41.04,18.06-.94,24.99-.04,2.35.3,2.44,2.05,2.16,4.13-.35,2.62-2.77,2.92-5.05,3.11-15.51,1.32-32.44-1.36-47.98,0-13.92-1.27-30.59,1.6-44.18-.02-4.79-.57-5.62-6.93.63-7.56Z"/>
        <path class="cls-19" d="M399.81,538.28l93.94-.13c4.52.25,5.17,6.74.48,7.22l-95.04.02c-4.09-.52-3.72-6.33.62-7.11Z"/>
        <path class="cls-19" d="M399.82,440.86l92.98-.15c5.12-.21,6.5,5.94,1.45,7.24h-94.56c-4.99-.59-4.49-6.75.14-7.1Z"/>
      </g>
      <g>
        <path class="cls-13" d="M305.89,392.73c0,1.02.59,1.32,1.28,1.84,8,6.15,18.52,10.3,26.71,16,6.88,4.79,6.11,7.7,6.56,15.76-4.72-.2-15.7,3.28-14.37-5.01.4-2.47,2.54-2.02,2.85-4.1l-11.38-6.18-.78-.04c-.74.22-4.71,7.35-5.36,8.6-1.06,2.05-2.59,7.07-3.56,8.31-.41.53-3.06,1.81-4.12,2.73-1.59,1.38-4.52,4.93-5.51,6.73-1.42.03-1.5.37-1.46-1.2.05-1.66,1.83-7.69,2.46-9.56,2.37-7.09,6.18-13.61,9.61-20.21.02-.69-6.15-5.03-7.01-5.03h-19.19c-1.12,0-.74,8.07-.74,9.38-.04,22.04.4,44.55.52,66.68.03,5.99-.7,14.06-.04,19.72.37,3.16,3,.96,4.82.7,2.98-.44,4.31-.72,7.2-1.44,9.43-2.34,15.28-5.06,23.99-8.64,1.69-.69,4.5-.74,6.2-1.72s3.02-4,4.82-5.26c3.95-2.78,11.78.02,16.33-1.66.96,0,1.92.01,2.88,0,1.94-.02,8.33.42,9.35-.49.24-.21.17-.89.25-.95,1.27-.9,8.23,3.15,11.91-2.24,4.47-6.54.99-24.5-.46-32.49-1.56-8.57-4.61-15.02-13.85-16.63-.26-.05-.59-.45-1.44-.48.23-1.18-1.04-1.87-.89-3,.38-3.02,3-1.47.75-6.7-2.28-5.31-5.9-10.48-9.47-15.01-2.2-2.79-5.23-5.17-6.71-8.41,3.66,0,7.54.47,11.04.48,4.31,5.33,8.7,11.04,11.91,17.13,1.53,2.91,3.28,8.74,4.87,10.97.91,1.27,3.83,2.75,5.07,4.05,5.9,6.12,6.67,14.59,7.9,22.58,1.97,12.78,6.02,33.38-9.12,39.84-.47.2-1.73-.04-3.05.56-2.68,1.2-10.18,8.49-13.6,10.88-14.77,10.29-31.84,17.42-48.84,23.14-1.71.58-6.01,1.33-7.09,1.9-.15.08-1.65,2.55-1.79,2.88-10.38,2.38-21.67,1.32-32.4,1.43-.81,0-2.13-.31-2.63.49-.48,0-.96,0-1.44,0h-27.83c-.96,0-1.92,0-2.88,0-.5-.8-1.82-.48-2.63-.49-3.69-.05-6.65.12-10.32-.47-12.3-1.97-19.73-13.84-20.63-25.69v-96.95c.65-5.22,3.42-9.33,7.67-12.24,34.44-.82,69.13-.56,103.64-.48ZM273.26,401.37h-67.42c-1.33,0-2.51,4.32-2.63,5.53-.18,1.83-.1,15.02.48,15.6l69.57-.48v-20.64ZM223.84,473.39h49.42v-42.26h-70.08v42.26h70.08v-42.26h-70.08v42.26h20.66ZM273.26,482.49h-70.06v19.44c0,10.51,8.52,17.86,18.45,18.5,15.93,1.03,32.94-.84,48.99,0l2.62-.5v-37.44ZM352.43,488.25h-16.55c-.44,0-6.16,3.92-7.43,4.57-14.48,7.42-29.99,12.12-45.96,15.22-.86,1.19-.08,2.55-.09,3.94-.02,2.67-.2,5.31-.26,7.95,22.17-5.51,44.02-13.59,63.24-26.02,1.8-1.16,4.77-2.95,6.24-4.31.47-.43,1.03-.42.81-1.35Z"/>
        <path class="cls-12" d="M298.21,437.37c.99-1.81,3.92-5.35,5.51-6.73,1.05-.92,3.71-2.2,4.12-2.73.97-1.25,2.5-6.26,3.56-8.31.64-1.25,4.61-8.39,5.36-8.6l.78.04,11.38,6.18c-.31,2.08-2.45,1.63-2.85,4.1-1.33,8.29,9.65,4.81,14.37,5.01,1.05.04,2.52.26,3.36.96-2.07,1.26-3.15,5.44-2.76,7.81.45,2.72,3.33,6.41,6.12,6.59.24,1.35.63,2.52,0,3.84-3.71,1.54-4.74,6.54-3.07,10.03.84,1.75,1.43,1.56,2.59,2.45.05.04-.21.65.33.96.59.34,2.42.19,2.58.77.48,1.78.07,3.54-1.47,4.51-3.11,2.35-3.39,8.34,0,10.56,1.12,1.49.89,2.62.48,4.32-.96.01-1.92,0-2.88,0-4.39.03-8.83-.16-13.22-.02-7.46.25-11.64,2.16-19.4-.71-1.68-.62-10.23-5.82-11.05-6.95-1.68-2.31-4.32-7.25-5.28-10.08-2.62-7.72-2.57-16.7,1.44-24Z"/>
        <path class="cls-10" d="M273.26,482.49v37.44l-2.62.5c-16.04-.84-33.06,1.03-48.99,0-9.93-.64-18.45-7.99-18.45-18.5v-19.44h70.06Z"/>
        <path class="cls-3" d="M223.84,473.39h-20.66v-42.26h70.08v42.26h-16.31c2.12-3.09,2.79-6.42-1.3-8.08-9.37.46-19.96-.96-29.19-.12-2.15.19-3.87,1.07-4.35,3.36-.55,2.62,1.09,2.69,1.73,4.84ZM225.63,450.44c-4.82.86-4.83,6.97-.09,8.02,9.03-.94,21.03,1.37,29.69,0,4.83-.76,4.64-7.37-.5-8.09-4.67-.65-24.67-.73-29.11.07Z"/>
        <path class="cls-21" d="M273.26,401.37v20.64l-69.57.48c-.58-.57-.66-13.76-.48-15.6.12-1.21,1.31-5.53,2.63-5.53h67.42Z"/>
        <path class="cls-2" d="M287.17,497.85c-1.82.27-4.45,2.46-4.82-.7-.66-5.67.07-13.73.04-19.72-.12-22.13-.56-44.64-.52-66.68,0-1.31-.37-9.38.74-9.38h19.19c.85,0,7.03,4.35,7.01,5.03-3.43,6.59-7.24,13.12-9.61,20.21-.62,1.87-2.41,7.9-2.46,9.56-.05,1.56.04,1.23,1.46,1.2-4.01,7.3-4.06,16.28-1.44,24l-1.92-.24-1.42,8.66-9.53,23.15c-.41,2.07,3.75,2.36,3.27,4.91Z"/>
        <path class="cls-14" d="M338.04,392.73c1.47,3.24,4.51,5.63,6.71,8.41,3.57,4.53,7.18,9.7,9.47,15.01,2.25,5.23-.38,3.68-.75,6.7-.14,1.13,1.12,1.82.89,3-1.9-.07-9.19.61-10.56,1.44-.84-.7-2.31-.92-3.36-.96-.45-8.05.31-10.97-6.56-15.76-8.19-5.7-18.71-9.85-26.71-16-.69-.53-1.28-.83-1.28-1.84,10.71.03,21.44-.03,32.15,0Z"/>
        <path class="cls-14" d="M352.43,488.25c.22.93-.34.92-.81,1.35-1.48,1.36-4.45,3.15-6.24,4.31-19.22,12.43-41.07,20.51-63.24,26.02.05-2.64.24-5.28.26-7.95.01-1.4-.77-2.76.09-3.94,15.97-3.1,31.48-7.8,45.96-15.22,1.27-.65,6.99-4.57,7.43-4.57h16.55Z"/>
        <path class="cls-14" d="M358.19,477.69l-.96-1.92c1.64-.19,4.41-.6,5.98-.98,2.19-.53.88-4.87.6-6.8-.34-2.36-1.47-5.2-1.78-7.1-.2-1.21-.23-2.48-.48-3.84-.8-4.47-2.06-9.25-2.88-13.44-.2-1.04-.23-2.11-.48-3.36-.14-.71.11-1.7-.06-2.57-.75-3.79-1.59-7.57-2.34-11.35,9.24,1.6,12.29,8.06,13.85,16.63,1.46,7.99,4.94,25.95.46,32.49-3.69,5.4-10.65,1.34-11.91,2.24Z"/>
        <path class="cls-9" d="M256.94,473.39h-53.77v-42.26h70.08v42.26h-49.42c-.64-2.15-2.28-2.22-1.73-4.84.48-2.29,2.2-3.17,4.35-3.36,9.23-.83,19.82.58,29.19.12,4.09,1.67,3.42,5,1.3,8.08Z"/>
        <path class="cls-11" d="M296.77,461.37c.96,2.83,3.59,7.77,5.28,10.08-.97,1.92-1.99,3.79-2.88,5.76-2.32,5.14-5.39,11.96-5.78,17.52-.06.89-.39,1.97.98,1.68-2.88.72-4.22,1-7.2,1.44.48-2.55-3.68-2.84-3.27-4.91l9.53-23.15,1.42-8.66,1.92.24Z"/>
        <path class="cls-12" d="M318.36,487.77c-8.71,3.58-14.56,6.3-23.99,8.64-1.37.29-1.04-.79-.98-1.68.39-5.56,3.46-12.38,5.78-17.52,2.86-1.39,4.95,2.99,7.04,4.24l12.16,6.32Z"/>
        <path class="cls-9" d="M354.35,425.85c.85.03,1.18.43,1.44.48.75,3.78,1.59,7.56,2.34,11.35.17.86-.08,1.86.06,2.57-3.4.46-7.65,1.66-11.04,1.44-2.79-.18-5.67-3.87-6.12-6.59-.39-2.37.69-6.55,2.76-7.81,1.37-.83,8.66-1.51,10.56-1.44Z"/>
        <path class="cls-20" d="M345.71,479.13c-4.55,1.68-12.38-1.12-16.33,1.66-1.8,1.26-3.19,4.33-4.82,5.26s-4.51,1.02-6.2,1.72l-12.16-6.32c-2.09-1.25-4.17-5.63-7.04-4.24.89-1.97,1.91-3.84,2.88-5.76.82,1.13,9.36,6.33,11.05,6.95,7.77,2.87,11.95.96,19.4.71,4.39-.14,8.83.05,13.22.02Z"/>
        <path class="cls-20" d="M357.23,475.77l.96,1.92c-.08.06,0,.74-.25.95-1.02.91-7.41.46-9.35.49.41-1.7.64-2.83-.48-4.32,2.87,1.88,5.93,1.32,9.12.96Z"/>
        <path class="cls-9" d="M362.03,460.89c.31,1.9,1.44,4.74,1.78,7.1.28,1.93,1.59,6.27-.6,6.8-1.56.38-4.34.8-5.98.98-3.18.36-6.25.92-9.12-.96-3.39-2.22-3.11-8.21,0-10.56,2.93-2.21,10.3-2.13,13.92-3.36Z"/>
        <path class="cls-9" d="M358.67,443.61c.82,4.19,2.08,8.97,2.88,13.44-4.94.36-10.14,2.95-14.87.96-1.16-.89-1.75-.7-2.59-2.45-1.68-3.49-.64-8.48,3.07-10.03,3.16-1.32,8.13-1.15,11.52-1.92Z"/>
        <path class="cls-7" d="M361.55,457.05c.24,1.36.28,2.63.48,3.84-3.62,1.23-10.99,1.15-13.92,3.36,1.54-.96,1.95-2.73,1.47-4.51-.16-.58-1.98-.43-2.58-.77-.54-.31-.28-.93-.33-.96,4.74,1.99,9.93-.6,14.87-.96Z"/>
        <path class="cls-7" d="M358.67,443.61c-3.39.77-8.35.6-11.52,1.92.63-1.32.24-2.49,0-3.84,3.39.22,7.63-.98,11.04-1.44.25,1.25.28,2.32.48,3.36Z"/>
        <path class="cls-9" d="M225.63,450.44c4.45-.8,24.44-.72,29.11-.07,5.14.72,5.33,7.33.5,8.09-8.66,1.37-20.67-.94-29.69,0-4.74-1.05-4.73-7.15.09-8.02Z"/>
      </g>
      <g>
        <path class="cls-13" d="M522.77,514.17c-.23,1.55.22,3.46,0,5.04-.87,6.08-1.88,12.12-2.84,18.18.16.49,7.96,3.97,9.23,4.72,15.25,9.08,25.47,25.83,26.72,43.59l-.47.24.47.24c.67,11.23.38,25.15,0,36.48h-8.64c.92-27.35,4.29-56.03-21.92-72.39-1.51-.94-7.17-4.63-8.55-2.97-10.28,31.17-34.02,55.39-63.7,68.66-.51.23-.31.92-.36.94-.39.2-7.03,2.5-8.16,2.88-8.44,2.83-18.53,4.87-27.35,5.76h-.48c-.32.03-.64-.02-.96,0s-.94.45-1.65.48c-2.48.12-4.99-.09-7.46,0,.6-15.39,1.81-41.3-4.86-54.9-16.06-32.77-64.66-36.15-83.91-4.62-1.59,1.29-2.52,3.21-2.88,5.28-.1.04-.79,1.43-.96,1.44-2.52.17-5.16-1.91-7.68-1.92l.48-2.4c10.59-26.67,40.71-38.39,67.66-30.72,12.64,3.6,25.81,13.17,32.63,24.48,4.87,8.08,7.68,18.17,8.18,27.58.44,8.24-1.03,18.59-.02,26.43.09.7-.27.81.68.68,40.46-5.41,75.68-29.58,90.48-68.13,3.98-10.35,7.75-24.41,8.16-35.52,3.11-1.8,5.43-2.26,8.16.48Z"/>
        <path class="cls-13" d="M452.71,616.89c.11,10.07,3.31,19.68,12.84,24.35,6.87,3.37,19.07,2.03,26.98,2.05,7.99.02,16-.02,23.99,0-.05-.95.07-1.93,0-2.88.87.34.22,1.95.54,2.34.12.15,2.31.49,2.82.54.16.01.32,0,.48,0,3.31.19,12.62.46,15.35-.48,2.43,1.63,4.27,4.1,3.84,7.2-5.87,2.39-7.24,1.83-13.18,1.9-17.09.18-38.05,1.36-54.74.04s-27.35-16.71-27.09-32.18c1.12-.38,7.77-2.68,8.16-2.88Z"/>
        <path class="cls-13" d="M329.88,651.93c-.31-1.64-1.88-2.36-2.79-3.69-1.26-1.83-1.84-4.03-2.97-5.91,7.84,1.57,16,.91,23.99.96,1.62.01,3.16-.49,4.32-.48,7.82.04,15.99.54,23.99.48,1.28-.01,2.56.02,3.84,0,7.25-.09,14.77,1.47,20.64-3.59,2.15-1.86,2.16-3.81,2.39-4.09.08-.09,1.28.34,2.04-1.08,1.29-2.39,1.22-5.91,1.32-8.52,2.48-.09,4.98.12,7.46,0,.71-.03,1.34-.46,1.65-.48-.45,14.62-9.73,25.88-24.69,26.9-19.53,1.33-41.54-.43-61.2-.5Z"/>
        <path class="cls-13" d="M555.88,622.65c-.42,12.6-4.14,22.41-16.31,27.36.43-3.1-1.41-5.57-3.84-7.2,1.95-.67,6.54-4.3,7.57-6.13.26-.46,0-1.37.11-1.55.05-.08,1.04-.11,1.67-.96,2.14-2.86,2.05-8.12,2.17-11.52h8.64Z"/>
        <path class="cls-20" d="M555.88,586.17l-.47-.24.47-.24c.01.16,0,.32,0,.48Z"/>
        <path class="cls-20" d="M416.73,625.53h.48c-.3.03-.44,0-.48,0Z"/>
        <path class="cls-17" d="M289.57,569.85c.18.64.32,1.44.48,1.92-1.25,1.61-.91,4.04-3.36,3.36-.44-1.3-1.7-4.13-2.4-5.28h5.28Z"/>
        <g>
          <path class="cls-11" d="M122.11,631.77c-9.52-3.72-18.26-6.58-24.94-15.13-6.21-7.94-5.14-20.08,3.87-25.39,1.98-1.17,3.84-1.33,5.67-2.49,4.75-8.19,7-27.43,16.51-31,6.73-2.53,11.47-.44,16.65,3.68,6.04,4.8,11.59,11.16,17.52,16.07.45.38,2.75,2.26,3.1,1.93,3.62-8.24,7.02-25.74,15.02-30.34,7.16-4.12,14.49-1.85,20.24,3.47l21.48,20.01c1.86.69,1.09-.47,1.56-1.76,2.32-6.34,8.36-24.97,12.46-28.84,5.89-5.56,14.32-5.29,20.85-1.14,9.43,5.99,18.49,17.17,27.87,23.72,1.3,1.71,3.21,3.45,4.32,5.28.7,1.15,1.96,3.98,2.4,5.28.08.25-.07.68,0,.96l-.48.96c-3,2.32-6.96,1.46-10.79,1.93-51.61,6.22-103.44,10.79-154.98,17.28-3.82.48-10.42.98-13.79,2.05-3.88,1.23-5.14,4.83-4.65,8.7,1,7.95,15.41,14.41,22.03,17.08-.18,2.55-.46,5.55-1.92,7.68ZM254.82,554.69c-4.7-3.89-13.22-13.12-18.44-4.69-2.38,3.84-7.55,18.53-8.86,23.3-.21.77-.44,1.5-.33,2.31l45.11-4.8-.32-1.46c-5.88-4.68-11.38-9.88-17.15-14.66ZM203.98,571.96c-2.67-2.5-16.71-15.43-18.87-15.93-4.57-1.04-6.52,1.37-8.23,5.01-1.06,2.25-8.01,19.46-7.72,20.51.12.42.64.82,1.12.75,12.66-2.04,25.53-2.58,38.17-4.56,1.36-1.19.05-.99-.44-1.54-1.27-1.43-2.65-2.95-4.04-4.25ZM148.68,581.66c-5.22-5.09-10.83-9.79-16.04-14.91-3.79-2.03-6.39-1.92-8.56,1.96-1.94,3.48-5.48,13.03-6.54,16.98-.17.65-.34,1.25-.24,1.92,6.54.28,12.99-1.19,19.44-1.91,3.08-.34,7.01-.08,10.05-.51,1.28-.18,2.52-1.39,4.1-.94.14-1.4-1.45-1.83-2.22-2.58Z"/>
          <path class="cls-13" d="M306.37,571.29c2.69.32,2.32-1.42,2.97-.38,1.03,1.65,3.21.83,4.7,2.3-.88,3.89-2.14,7.73-2.42,11.74-.7,10.22-1.03,29.87.07,39.81.33,2.94,2.33,8.41,4.06,10.82,1.46,2.04,5.77,5.71,8.37,5.79,0,.32,0,.64,0,.96,1.13,1.88,1.71,4.08,2.97,5.91.91,1.33,2.49,2.05,2.79,3.69-69.37-.26-142.34,5.4-207.77-20.16,1.46-2.13,1.74-5.13,1.92-7.68,32.88,13.28,75.68,18.72,111.06,19.7,25.16.69,50.43-.56,75.59-.02.66-.64-4.28-7.41-4.89-8.79-3.55-8.06-2.19-21.84-2.29-30.83-.04-3.96-.6-8.01-.5-12.22.2-8.17.83-13.02,3.36-20.64Z"/>
          <path class="cls-1" d="M303.01,591.93c-.1,4.21.46,8.26.5,12.22.1,8.99-1.26,22.77,2.29,30.83.61,1.37,5.55,8.15,4.89,8.79-25.16-.54-50.44.72-75.59.02-35.38-.98-78.18-6.42-111.06-19.7-6.62-2.67-21.03-9.13-22.03-17.08-.48-3.87.78-7.47,4.65-8.7,3.37-1.07,9.97-1.57,13.79-2.05,51.55-6.49,103.38-11.07,154.98-17.28,3.83-.46,7.79.4,10.79-1.93.12-.09.68.08.96,0,.23-.57-.46-.87-.48-.96-.07-.28.08-.71,0-.96,2.44.68,2.11-1.75,3.36-3.36,2.43,7.11,7.57,14.94,12.96,20.16Z"/>
          <path class="cls-5" d="M254.82,554.69c5.77,4.78,11.28,9.97,17.15,14.66l.32,1.46-45.11,4.8c-.11-.81.12-1.54.33-2.31,1.31-4.77,6.48-19.46,8.86-23.3,5.22-8.43,13.74.8,18.44,4.69Z"/>
          <path class="cls-5" d="M203.98,571.96c1.39,1.3,2.77,2.82,4.04,4.25.49.55,1.8.35.44,1.54-12.64,1.98-25.51,2.52-38.17,4.56-.48.06-1-.33-1.12-.75-.29-1.06,6.65-18.26,7.72-20.51,1.71-3.64,3.66-6.05,8.23-5.01,2.16.49,16.2,13.43,18.87,15.93Z"/>
          <path class="cls-5" d="M148.68,581.66c.77.75,2.35,1.18,2.22,2.58-1.59-.46-2.82.75-4.1.94-3.04.44-6.96.17-10.05.51-6.45.72-12.9,2.2-19.44,1.91-.1-.68.06-1.28.24-1.92,1.06-3.95,4.6-13.5,6.54-16.98,2.17-3.88,4.77-3.98,8.56-1.96,5.21,5.12,10.81,9.82,16.04,14.91Z"/>
          <path class="cls-17" d="M286.69,576.09c.02.09.71.39.48.96-.28.09-.84-.09-.96,0l.48-.96Z"/>
        </g>
        <path class="cls-12" d="M406.65,626.01c-.1,2.61-.03,6.13-1.32,8.52-.77,1.42-1.96.99-2.04,1.08-1.83-4.83-5.71-13.8-12.11-12.85-6.91,1.02-10.39,12.22-10.92,18.13,0,.1-.32.21-.32.38-.01.38.31.5.32.58.07.45-.04.97,0,1.44-1.28.02-2.56-.01-3.84,0,.08-7.46-6.42-25.99-16.47-19.12-4.23,2.89-6.95,10.87-7.52,15.76-.04.37,0,.34,0,.48,0,.8,0,1.6,0,2.4-1.15,0-2.7.49-4.32.48.68-6.18-4.55-20.29-11.8-20.61-7.09-.31-12.18,12.94-12.19,18.69-2.59-.08-6.9-3.75-8.37-5.79-1.73-2.41-3.73-7.88-4.06-10.82-1.1-9.93-.77-29.58-.07-39.81.28-4.01,1.53-7.85,2.42-11.74.06-.28.71-.83.48-1.44.17-.01.38.04.48,0,.6-.25,2.27-4.29,2.88-5.28,19.24-31.53,67.84-28.14,83.91,4.62,6.67,13.6,5.45,39.51,4.86,54.9Z"/>
        <path class="cls-6" d="M547.24,622.65c-.11,3.4-.03,8.67-2.17,11.52-.63.85-1.63.87-1.67.96-5.87-16.84-17.67-16.35-22.33.94-.39,1.45-.33,3.26-.7,4.82-.14.62-.88,1.39-.48,2.4-.51-.05-2.7-.38-2.82-.54-.31-.39.33-2-.54-2.34-.41-5.55-4.84-16.39-10.91-17.65-8.25-1.72-13.75,14.12-13.09,20.53-7.92-.02-20.11,1.32-26.98-2.05-9.53-4.68-12.73-14.29-12.84-24.35.04-.02-.16-.71.36-.94,29.68-13.27,53.41-37.49,63.7-68.66,1.38-1.66,7.04,2.03,8.55,2.97,26.21,16.36,22.84,45.04,21.92,72.39Z"/>
        <path class="cls-20" d="M315,571.77c.36-2.07,1.28-3.99,2.88-5.28-.61.99-2.28,5.03-2.88,5.28Z"/>
        <path class="cls-17" d="M306.85,570.33h-.48c.17-.47.24-.84.48-1.44v1.44Z"/>
        <path class="cls-15" d="M348.11,643.29c-8-.05-16.15.61-23.99-.96,0-.32,0-.64,0-.96.02-5.75,5.11-19,12.19-18.69,7.25.32,12.47,14.43,11.8,20.61Z"/>
        <path class="cls-9" d="M516.53,640.41c.07.95-.04,1.93,0,2.88-7.99-.02-16,.02-23.99,0-.67-6.41,4.84-22.25,13.09-20.53,6.06,1.26,10.5,12.11,10.91,17.65Z"/>
        <path class="cls-9" d="M543.4,635.13c-.1.18.15,1.09-.11,1.55-1.03,1.83-5.62,5.46-7.57,6.13-2.73.94-12.04.67-15.35.48l.37-2.11-.37-.29c.36-1.57.31-3.38.7-4.82,4.66-17.29,16.47-17.78,22.33-.94Z"/>
        <path class="cls-7" d="M520.37,643.29c-.16,0-.32.01-.48,0-.4-1.01.34-1.78.48-2.4l.37.29-.37,2.11Z"/>
        <path class="cls-9" d="M376.42,643.29c-8,.06-16.17-.44-23.99-.48,0-.8,0-1.6,0-2.4v-.48c.57-4.89,3.29-12.87,7.52-15.76,10.05-6.88,16.56,11.66,16.47,19.12Z"/>
        <path class="cls-9" d="M403.29,635.61c-.24.27-.24,2.22-2.39,4.09-5.87,5.07-13.39,3.51-20.64,3.59-.04-.47.07-.99,0-1.44v-.96c.53-5.92,4.01-17.12,10.92-18.13,6.4-.94,10.28,8.02,12.11,12.85Z"/>
        <path class="cls-20" d="M380.26,641.85c-.01-.07-.33-.19-.32-.58,0-.17.32-.28.32-.38v.96Z"/>
        <path class="cls-20" d="M352.43,640.41c0-.14-.04-.11,0-.48v.48Z"/>
        <path class="cls-9" d="M489.39,640.41c.07.95-.04,1.93,0,2.88-7.95.24-16.09,1.13-23.84-2.06-.67-6.41,4.68-20.2,12.93-18.48,6.06,1.26,10.5,12.11,10.91,17.65Z"/>
      </g>
    </g>
  </g>
  <path class="cls-8" d="M365.3,237.67c-.03-19.4,16.04-34.94,34.53-34.53,17.39.39,32.21,14.78,32.98,32.98"/>
</svg>